<?xml version="1.0" encoding="utf-8"?>
<!-- Generator: Adobe Illustrator 21.0.0, SVG Export Plug-In . SVG Version: 6.00 Build 0)  -->
<svg version="1.1" id="Layer_1" xmlns="http://www.w3.org/2000/svg" xmlns:xlink="http://www.w3.org/1999/xlink" x="0px" y="0px"
	 viewBox="0 0 183 10.9" style="enable-background:new 0 0 183 10.9;" xml:space="preserve">
<style type="text/css">
	.st0{fill:#595959;}
</style>
<g>
	<path d="M6.3,5.5h3.4v0.3c0,0.6-0.1,1.2-0.2,1.7C9.4,7.9,9.2,8.3,8.8,8.7C8,9.6,7.1,10,5.9,10c-1.2,0-2.2-0.4-3-1.3
		c-0.8-0.8-1.2-1.9-1.2-3c0-1.2,0.4-2.2,1.3-3.1C3.8,1.8,4.8,1.4,6,1.4c0.6,0,1.3,0.1,1.8,0.4c0.5,0.3,1.1,0.7,1.6,1.3L8.5,3.9
		C7.8,3,7,2.6,6,2.6c-0.9,0-1.6,0.3-2.2,0.9C3.2,4.1,2.9,4.8,2.9,5.7c0,0.9,0.3,1.7,1,2.3c0.6,0.6,1.3,0.8,2,0.8
		c0.6,0,1.2-0.2,1.7-0.6c0.5-0.4,0.8-0.9,0.8-1.5H6.3V5.5z"/>
	<path d="M14.2,6.3l2.6,3.5h-1.5l-2.4-3.4h-0.2v3.4h-1.3V1.6h1.5c1.1,0,1.9,0.2,2.4,0.6C15.7,2.6,16,3.2,16,4c0,0.6-0.2,1.1-0.5,1.5
		C15.2,5.9,14.7,6.2,14.2,6.3z M12.6,5.4H13c1.2,0,1.8-0.5,1.8-1.4c0-0.8-0.6-1.3-1.7-1.3h-0.4V5.4z"/>
	<path d="M17.4,5.7c0-1.2,0.4-2.2,1.3-3c0.9-0.8,1.9-1.3,3.1-1.3c1.2,0,2.2,0.4,3,1.3c0.9,0.8,1.3,1.9,1.3,3.1c0,1.2-0.4,2.2-1.3,3
		c-0.9,0.8-1.9,1.3-3.1,1.3c-1.1,0-2-0.4-2.9-1.1C17.8,8.1,17.4,7,17.4,5.7z M18.6,5.7c0,0.9,0.3,1.7,0.9,2.3
		c0.6,0.6,1.3,0.9,2.1,0.9c0.9,0,1.6-0.3,2.2-0.9c0.6-0.6,0.9-1.4,0.9-2.2c0-0.9-0.3-1.6-0.9-2.2c-0.6-0.6-1.3-0.9-2.2-0.9
		c-0.9,0-1.6,0.3-2.2,0.9C18.9,4.1,18.6,4.8,18.6,5.7z"/>
	<path d="M27.7,1.6l2.2,5.6l2.3-6l2.2,6l2.3-5.6h1.4l-3.7,8.8l-2.1-5.9l-2.2,5.9l-3.5-8.8H27.7z"/>
	<path class="st0" d="M38.7,9.9l1.7-8.9l2.9,6.5l3-6.5l1.6,8.9h-1.3l-0.8-5l-2.5,5.4l-2.4-5.4l-0.9,5H38.7z"/>
	<path class="st0" d="M51.2,6.3l-2.7-4.7H50l1.9,3.3l1.9-3.3h1.4l-2.7,4.7v3.6h-1.3V6.3z"/>
	<path d="M57.4,6.5v3.4h-1.3V1.6h1.4c0.7,0,1.2,0,1.6,0.1c0.4,0.1,0.7,0.3,0.9,0.5c0.5,0.5,0.7,1.1,0.7,1.8c0,0.8-0.3,1.4-0.8,1.8
		c-0.5,0.4-1.2,0.7-2.1,0.7H57.4z M57.4,5.3h0.5c1.2,0,1.7-0.4,1.7-1.3c0-0.9-0.6-1.3-1.8-1.3h-0.4V5.3z"/>
	<path d="M66.7,2.7h-3.3v2h3.2v1.2h-3.2v2.8h3.3v1.2h-4.6V1.6h4.6V2.7z"/>
	<path d="M71.2,6.3l2.6,3.5h-1.5l-2.4-3.4h-0.2v3.4h-1.3V1.6h1.5c1.1,0,1.9,0.2,2.4,0.6C72.7,2.6,73,3.2,73,4c0,0.6-0.2,1.1-0.5,1.5
		C72.2,5.9,71.7,6.2,71.2,6.3z M69.6,5.4H70c1.2,0,1.8-0.5,1.8-1.4c0-0.8-0.6-1.3-1.7-1.3h-0.4V5.4z"/>
	<path d="M79.7,2.8l-1,0.6c-0.2-0.3-0.4-0.5-0.5-0.6c-0.2-0.1-0.4-0.2-0.7-0.2c-0.3,0-0.6,0.1-0.9,0.3c-0.2,0.2-0.3,0.4-0.3,0.7
		c0,0.4,0.3,0.7,0.9,1L78,4.9c0.7,0.3,1.2,0.6,1.5,1c0.3,0.4,0.5,0.9,0.5,1.4c0,0.8-0.3,1.4-0.8,1.9C78.6,9.8,78,10,77.2,10
		c-0.7,0-1.3-0.2-1.8-0.6c-0.5-0.4-0.8-1-0.9-1.8l1.3-0.3c0.1,0.5,0.2,0.8,0.3,1c0.3,0.4,0.6,0.5,1.1,0.5c0.4,0,0.7-0.1,1-0.4
		c0.3-0.3,0.4-0.6,0.4-1c0-0.2,0-0.3-0.1-0.4c0-0.1-0.1-0.3-0.2-0.4c-0.1-0.1-0.2-0.2-0.4-0.3c-0.2-0.1-0.3-0.2-0.5-0.3l-0.8-0.3
		c-1.1-0.5-1.7-1.2-1.7-2.1c0-0.6,0.2-1.1,0.7-1.6c0.5-0.4,1.1-0.6,1.8-0.6C78.4,1.4,79.1,1.9,79.7,2.8z"/>
	<path d="M81,5.7c0-1.2,0.4-2.2,1.3-3c0.9-0.8,1.9-1.3,3.1-1.3c1.2,0,2.2,0.4,3,1.3c0.9,0.8,1.3,1.9,1.3,3.1c0,1.2-0.4,2.2-1.3,3
		c-0.9,0.8-1.9,1.3-3.1,1.3c-1.1,0-2-0.4-2.9-1.1C81.5,8.1,81,7,81,5.7z M82.3,5.7c0,0.9,0.3,1.7,0.9,2.3c0.6,0.6,1.3,0.9,2.1,0.9
		c0.9,0,1.6-0.3,2.2-0.9c0.6-0.6,0.9-1.4,0.9-2.2c0-0.9-0.3-1.6-0.9-2.2c-0.6-0.6-1.3-0.9-2.2-0.9c-0.9,0-1.6,0.3-2.2,0.9
		C82.6,4.1,82.3,4.8,82.3,5.7z"/>
	<path d="M91.3,9.9V1l6.1,6.3V1.6h1.3v8.8l-6.1-6.3v5.8H91.3z"/>
	<path d="M105.5,7.9h-3.6l-0.9,2h-1.4l4.1-8.8l4,8.8h-1.4L105.5,7.9z M105,6.7l-1.2-2.8l-1.3,2.8H105z"/>
	<path d="M110,1.6v7.1h2.4v1.2h-3.7V1.6H110z"/>
	<path class="st0" d="M113.7,9.9V1.6h1.2c0.6,0,1,0,1.3,0.1c0.3,0.1,0.6,0.2,0.8,0.4c0.2,0.2,0.4,0.5,0.6,0.8c0.1,0.3,0.2,0.6,0.2,1
		c0,0.6-0.2,1.1-0.7,1.5c0.4,0.2,0.8,0.4,1,0.8c0.3,0.4,0.4,0.8,0.4,1.3c0,0.6-0.2,1.2-0.7,1.6c-0.3,0.3-0.6,0.5-0.9,0.6
		c-0.4,0.1-0.8,0.2-1.4,0.2H113.7z M114.9,5.1h0.4c0.5,0,0.8-0.1,1-0.3s0.3-0.5,0.3-0.9c0-0.4-0.1-0.7-0.3-0.9
		c-0.2-0.2-0.5-0.3-1-0.3h-0.4V5.1z M114.9,8.7h0.8c0.6,0,1-0.1,1.2-0.3c0.3-0.2,0.4-0.5,0.4-0.9c0-0.4-0.1-0.7-0.4-0.9
		c-0.3-0.2-0.7-0.4-1.4-0.4h-0.6V8.7z"/>
	<path class="st0" d="M123,6.3l2.6,3.5H124l-2.4-3.4h-0.2v3.4h-1.3V1.6h1.5c1.1,0,1.9,0.2,2.4,0.6c0.5,0.5,0.8,1.1,0.8,1.8
		c0,0.6-0.2,1.1-0.5,1.5C124,5.9,123.6,6.2,123,6.3z M121.4,5.4h0.4c1.2,0,1.8-0.5,1.8-1.4c0-0.8-0.6-1.3-1.7-1.3h-0.4V5.4z"/>
	<path class="st0" d="M131.7,7.9h-3.6l-0.9,2h-1.4L130,1l4,8.8h-1.4L131.7,7.9z M131.2,6.7L130,3.9l-1.3,2.8H131.2z"/>
	<path class="st0" d="M135,9.9V1l6.1,6.3V1.6h1.3v8.8l-6.1-6.3v5.8H135z"/>
	<path class="st0" d="M144.3,9.9V1.6h1.7c0.8,0,1.5,0.1,2,0.2c0.5,0.2,1,0.4,1.4,0.8c0.9,0.8,1.3,1.8,1.3,3.1c0,1.3-0.4,2.3-1.3,3.1
		c-0.4,0.4-0.9,0.7-1.4,0.8c-0.5,0.2-1.1,0.2-2,0.2H144.3z M145.5,8.7h0.6c0.6,0,1-0.1,1.4-0.2c0.4-0.1,0.7-0.3,1-0.6
		c0.6-0.6,0.9-1.3,0.9-2.2c0-0.9-0.3-1.7-0.9-2.2c-0.5-0.5-1.4-0.8-2.4-0.8h-0.6V8.7z"/>
	<path d="M152.2,9.3c0-0.2,0.1-0.4,0.2-0.5c0.1-0.1,0.3-0.2,0.5-0.2c0.2,0,0.4,0.1,0.5,0.2c0.1,0.1,0.2,0.3,0.2,0.5
		c0,0.2-0.1,0.4-0.2,0.5c-0.1,0.1-0.3,0.2-0.5,0.2c-0.2,0-0.4-0.1-0.5-0.2C152.3,9.7,152.2,9.5,152.2,9.3z"/>
	<path d="M161.8,2v1.5c-0.7-0.6-1.5-0.9-2.2-0.9c-0.9,0-1.6,0.3-2.2,0.9c-0.6,0.6-0.9,1.4-0.9,2.2c0,0.9,0.3,1.6,0.9,2.2
		c0.6,0.6,1.3,0.9,2.2,0.9c0.4,0,0.8-0.1,1.1-0.2c0.2-0.1,0.4-0.2,0.5-0.3c0.2-0.1,0.4-0.3,0.6-0.4v1.5c-0.7,0.4-1.5,0.6-2.3,0.6
		c-1.2,0-2.2-0.4-3-1.2c-0.8-0.8-1.3-1.8-1.3-3c0-1.1,0.3-2,1-2.8c0.9-1,2-1.5,3.3-1.5C160.4,1.4,161.1,1.6,161.8,2z"/>
	<path d="M162.9,5.7c0-1.2,0.4-2.2,1.3-3c0.9-0.8,1.9-1.3,3.1-1.3c1.2,0,2.2,0.4,3,1.3c0.9,0.8,1.3,1.9,1.3,3.1c0,1.2-0.4,2.2-1.3,3
		c-0.9,0.8-1.9,1.3-3.1,1.3c-1.1,0-2-0.4-2.9-1.1C163.4,8.1,162.9,7,162.9,5.7z M164.2,5.7c0,0.9,0.3,1.7,0.9,2.3
		c0.6,0.6,1.3,0.9,2.1,0.9c0.9,0,1.6-0.3,2.2-0.9c0.6-0.6,0.9-1.4,0.9-2.2c0-0.9-0.3-1.6-0.9-2.2c-0.6-0.6-1.3-0.9-2.2-0.9
		c-0.9,0-1.6,0.3-2.2,0.9C164.5,4.1,164.2,4.8,164.2,5.7z"/>
	<path d="M172.9,9.9l1.7-8.9l2.9,6.5l3-6.5l1.6,8.9h-1.3l-0.8-5l-2.5,5.4l-2.4-5.4l-0.9,5H172.9z"/>
</g>
</svg>
